<svg id="Layer_1" data-name="Layer 1" xmlns="http://www.w3.org/2000/svg" viewBox="0 0 512 512"><defs><style>.cls-1{fill:#E8EAF6;}</style></defs><title>flurries</title><path class="cls-1" d="M400,64a111,111,0,0,0-15.79,1.13,158.76,158.76,0,0,0-256.42,0A111,111,0,0,0,112,64a112,112,0,0,0,0,224,110.83,110.83,0,0,0,39.71-7.33,157.93,157.93,0,0,0,208.58,0A110.83,110.83,0,0,0,400,288a112,112,0,0,0,0-224Zm0,192a78.76,78.76,0,0,1-28.25-5.21l-18-6.92-14.5,12.67a125.88,125.88,0,0,1-166.5,0l-14.5-12.67-18,6.92A78.6,78.6,0,0,1,112,256a80,80,0,0,1,0-160,81.22,81.22,0,0,1,11.25.79l19,2.75,11.35-15.46C177.88,51,215.21,32,256,32s78.13,19,102.42,52.06l11.38,15.48,19-2.75A80,80,0,1,1,400,256ZM96,320a32,32,0,1,0,32,32A32,32,0,0,0,96,320Zm160,32a32,32,0,1,0,32,32A32,32,0,0,0,256,352Zm160-32a32,32,0,1,0,32,32A32,32,0,0,0,416,320ZM352,448a32,32,0,1,0,32,32A32,32,0,0,0,352,448Zm-192,0a32,32,0,1,0,32,32A32,32,0,0,0,160,448Z"/></svg>