<svg id="Layer_1" data-name="Layer 1" xmlns="http://www.w3.org/2000/svg" viewBox="0 0 480 288"><defs><style>.cls-1{fill:#E8EAF6;}</style></defs><title>fog</title><path class="cls-1" d="M464,128H382.38C374.31,56.21,313.94,0,240,0A144,144,0,0,0,120.38,64H16a16,16,0,0,0,0,32h88.83a142,142,0,0,0-7.21,32H48a16,16,0,0,0,0,32H97.63a142,142,0,0,0,7.21,32H18.92C8.46,192,0,199.17,0,208s8.46,16,18.92,16H120.38a143.8,143.8,0,0,0,239.25,0h37.46c10.46,0,18.92-7.17,18.92-16s-8.46-16-18.92-16H375.17a143.19,143.19,0,0,0,7.21-32H464a16,16,0,0,0,0-32ZM139.23,96H240a16,16,0,0,0,0-32H161.85A111.55,111.55,0,0,1,240,32c56.29,0,102.54,41.88,110.38,96H129.63A110,110,0,0,1,139.23,96ZM240,256a111.63,111.63,0,0,1-78.15-32H318.13A111.54,111.54,0,0,1,240,256Zm100.75-64H139.23a110,110,0,0,1-9.6-32H350.38A109.41,109.41,0,0,1,340.75,192Z"/></svg>