<svg id="Layer_1" data-name="Layer 1" xmlns="http://www.w3.org/2000/svg" viewBox="0 0 512 384"><defs><style>.cls-1{fill:#E8EAF6;}</style></defs><title>overcast</title><path class="cls-1" d="M33.6,192A80.9,80.9,0,0,1,32,176a79.87,79.87,0,0,1,110.44-73.92C163.67,60.67,206.29,32,256,32s92.33,28.67,113.54,70.08A79.94,79.94,0,0,1,478.38,192h32A106.72,106.72,0,0,0,512,176,112.14,112.14,0,0,0,400,64a111,111,0,0,0-15.79,1.13,158.76,158.76,0,0,0-256.42,0A111,111,0,0,0,112,64,112.14,112.14,0,0,0,0,176a109.54,109.54,0,0,0,1.63,16ZM496,224H16a16,16,0,0,0,0,32H496a16,16,0,0,0,0-32Zm0,64H16a16,16,0,0,0,0,32H496a16,16,0,0,0,0-32Zm0,64H16a16,16,0,0,0,0,32H496a16,16,0,0,0,0-32Z"/></svg>