<svg id="icons" xmlns="http://www.w3.org/2000/svg" viewBox="0 0 203.68 130.82"><defs><style>.cls-1{fill:#E8EAF6;}</style></defs><title>scatteredClouds</title><path class="cls-1" d="M166.33,130.82H86.08A31.87,31.87,0,0,1,83,67.23a39,39,0,0,1-.26-4.43A39.89,39.89,0,0,1,162,56.38a37,37,0,0,1,4.35-.26A37.35,37.35,0,1,1,166.33,130.82ZM86,72.5a26.45,26.45,0,0,0,0,52.9h80.25a31.93,31.93,0,1,0-6.17-63.26,2.71,2.71,0,0,1-3.22-2.42,34.47,34.47,0,0,0-68.8,3.08,34.73,34.73,0,0,0,.63,6.48,2.71,2.71,0,0,1-2.66,3.22H86Z"/><path class="cls-1" d="M57.47,107.32a2.7,2.7,0,0,1-1-.2A38.84,38.84,0,0,1,71.18,32.34h0A38.62,38.62,0,0,1,92.9,39a2.71,2.71,0,1,1-3,4.49,33.22,33.22,0,0,0-18.68-5.71h0A33.42,33.42,0,0,0,58.5,102.11,2.71,2.71,0,0,1,57.47,107.32Z"/><path class="cls-1" d="M71.18,28.38a2.71,2.71,0,0,1-2.71-2.71v-23a2.71,2.71,0,0,1,5.42,0v23A2.71,2.71,0,0,1,71.18,28.38Z"/><path class="cls-1" d="M39,41.71a2.7,2.7,0,0,1-1.92-.79L20.85,24.68a2.71,2.71,0,1,1,3.83-3.83L40.92,37.09A2.71,2.71,0,0,1,39,41.71Z"/><path class="cls-1" d="M2.71,73.89a2.71,2.71,0,0,1,0-5.42h23a2.71,2.71,0,0,1,0,5.42h-23Z"/><path class="cls-1" d="M22.76,122.31a2.71,2.71,0,0,1-1.92-4.62l16.24-16.24a2.71,2.71,0,1,1,3.83,3.83L24.68,121.51A2.7,2.7,0,0,1,22.76,122.31Z"/></svg>