<svg id="Layer_1" data-name="Layer 1" xmlns="http://www.w3.org/2000/svg" viewBox="0 0 512 512"><defs><style>.cls-1{fill:#E8EAF6;}</style></defs><title>thunderstorm</title><path class="cls-1" d="M192,384l32,32-32,96,96-96-32-32,32-64ZM512,134.83a89.24,89.24,0,0,0-89.17-89.12c-2.4,0-4.77.08-7.15.27a122.56,122.56,0,0,0-191.38,0c-2.37-.19-4.77-.27-7.19-.27A89.24,89.24,0,0,0,128,134.83a91.84,91.84,0,0,0,1.5,15c-.54.71-1.19,1.35-1.71,2.08A110.94,110.94,0,0,0,112,150.83a112,112,0,0,0,0,224,110.8,110.8,0,0,0,39.71-7.33c1.1,1,2.42,1.63,3.54,2.56l28.31-18.87c-9.44-6.69-18.25-14.12-25.62-23a80,80,0,1,1-15.5-139.27c.56-1.08,1.25-2,1.81-3a130.21,130.21,0,0,1,20.67-28c23.08-23.9,55.17-39,91.08-39,49.71,0,92.33,28.67,113.54,70.08a80,80,0,0,1,17.88-4.83L400,182.83a80,80,0,1,1-45.94,145.35c-14,16.88-32.44,29.56-53.15,37.56l-6,11.94,18.25,18.25a160.43,160.43,0,0,0,47.1-28.44A110.8,110.8,0,0,0,400,374.83a112.14,112.14,0,0,0,112-112c0-25.67-9-49.08-23.67-68A88.36,88.36,0,0,0,512,134.83Zm-46.44,37.63A110.41,110.41,0,0,0,384.21,152a158.25,158.25,0,0,0-221.15-34.77A56.76,56.76,0,0,1,238.87,82C254.06,52.46,284.5,32,320,32s66,20.46,81.08,50a56.94,56.94,0,0,1,64.48,90.42Z"/></svg>